<svg width="262" height="48" viewBox="0 0 262 48" fill="none" xmlns="http://www.w3.org/2000/svg">
<g clip-path="url(#clip0_1_40)">
<path d="M72.2647 9.8H74.8927V35H72.2647V9.8ZM56.4967 35H53.8327V9.8H56.4967V35ZM72.5167 23.372H56.2087V21.032H72.5167V23.372ZM82.7218 42.164C81.8338 42.164 80.9818 42.02 80.1658 41.732C79.3738 41.444 78.6898 41.012 78.1138 40.436L79.3018 38.528C79.7818 38.984 80.2978 39.332 80.8498 39.572C81.4258 39.836 82.0618 39.968 82.7578 39.968C83.5978 39.968 84.3178 39.728 84.9178 39.248C85.5418 38.792 86.1298 37.976 86.6818 36.8L87.9058 34.028L88.1938 33.632L95.9698 16.1H98.4898L89.0218 37.268C88.4938 38.492 87.9058 39.464 87.2578 40.184C86.6338 40.904 85.9498 41.408 85.2058 41.696C84.4618 42.008 83.6338 42.164 82.7218 42.164ZM87.7618 35.54L79.0498 16.1H81.7138L89.4178 33.452L87.7618 35.54ZM111.846 35.18C110.214 35.18 108.738 34.808 107.418 34.064C106.098 33.296 105.042 32.204 104.25 30.788C103.482 29.348 103.098 27.596 103.098 25.532C103.098 23.468 103.482 21.728 104.25 20.312C105.018 18.872 106.062 17.78 107.382 17.036C108.702 16.292 110.19 15.92 111.846 15.92C113.646 15.92 115.254 16.328 116.67 17.144C118.11 17.936 119.238 19.064 120.054 20.528C120.87 21.968 121.278 23.636 121.278 25.532C121.278 27.452 120.87 29.132 120.054 30.572C119.238 32.012 118.11 33.14 116.67 33.956C115.254 34.772 113.646 35.18 111.846 35.18ZM102.09 41.984V16.1H104.538V21.788L104.286 25.568L104.646 29.384V41.984H102.09ZM111.666 32.912C113.01 32.912 114.21 32.612 115.266 32.012C116.322 31.388 117.162 30.524 117.786 29.42C118.41 28.292 118.722 26.996 118.722 25.532C118.722 24.068 118.41 22.784 117.786 21.68C117.162 20.576 116.322 19.712 115.266 19.088C114.21 18.464 113.01 18.152 111.666 18.152C110.322 18.152 109.11 18.464 108.03 19.088C106.974 19.712 106.134 20.576 105.51 21.68C104.91 22.784 104.61 24.068 104.61 25.532C104.61 26.996 104.91 28.292 105.51 29.42C106.134 30.524 106.974 31.388 108.03 32.012C109.11 32.612 110.322 32.912 111.666 32.912ZM134.516 35.18C132.548 35.18 130.82 34.772 129.332 33.956C127.844 33.116 126.68 31.976 125.84 30.536C125 29.072 124.58 27.404 124.58 25.532C124.58 23.66 124.976 22.004 125.768 20.564C126.584 19.124 127.688 17.996 129.08 17.18C130.496 16.34 132.08 15.92 133.832 15.92C135.608 15.92 137.18 16.328 138.548 17.144C139.94 17.936 141.032 19.064 141.824 20.528C142.616 21.968 143.012 23.636 143.012 25.532C143.012 25.652 143 25.784 142.976 25.928C142.976 26.048 142.976 26.18 142.976 26.324H126.524V24.416H141.608L140.6 25.172C140.6 23.804 140.3 22.592 139.7 21.536C139.124 20.456 138.332 19.616 137.324 19.016C136.316 18.416 135.152 18.116 133.832 18.116C132.536 18.116 131.372 18.416 130.34 19.016C129.308 19.616 128.504 20.456 127.928 21.536C127.352 22.616 127.064 23.852 127.064 25.244V25.64C127.064 27.08 127.376 28.352 128 29.456C128.648 30.536 129.536 31.388 130.664 32.012C131.816 32.612 133.124 32.912 134.588 32.912C135.74 32.912 136.808 32.708 137.792 32.3C138.8 31.892 139.664 31.268 140.384 30.428L141.824 32.084C140.984 33.092 139.928 33.86 138.656 34.388C137.408 34.916 136.028 35.18 134.516 35.18ZM148.215 35V16.1H150.663V21.248L150.411 20.348C150.939 18.908 151.827 17.816 153.075 17.072C154.323 16.304 155.871 15.92 157.719 15.92V18.404C157.623 18.404 157.527 18.404 157.431 18.404C157.335 18.38 157.239 18.368 157.143 18.368C155.151 18.368 153.591 18.98 152.463 20.204C151.335 21.404 150.771 23.12 150.771 25.352V35H148.215ZM167.669 35.18C166.109 35.18 164.633 34.964 163.241 34.532C161.849 34.076 160.757 33.512 159.965 32.84L161.117 30.824C161.885 31.4 162.869 31.904 164.069 32.336C165.269 32.744 166.529 32.948 167.849 32.948C169.649 32.948 170.945 32.672 171.737 32.12C172.529 31.544 172.925 30.788 172.925 29.852C172.925 29.156 172.697 28.616 172.241 28.232C171.809 27.824 171.233 27.524 170.513 27.332C169.793 27.116 168.989 26.936 168.101 26.792C167.213 26.648 166.325 26.48 165.437 26.288C164.573 26.096 163.781 25.82 163.061 25.46C162.341 25.076 161.753 24.56 161.297 23.912C160.865 23.264 160.649 22.4 160.649 21.32C160.649 20.288 160.937 19.364 161.513 18.548C162.089 17.732 162.929 17.096 164.033 16.64C165.161 16.16 166.529 15.92 168.137 15.92C169.361 15.92 170.585 16.088 171.809 16.424C173.033 16.736 174.041 17.156 174.833 17.684L173.717 19.736C172.877 19.16 171.977 18.752 171.017 18.512C170.057 18.248 169.097 18.116 168.137 18.116C166.433 18.116 165.173 18.416 164.357 19.016C163.565 19.592 163.169 20.336 163.169 21.248C163.169 21.968 163.385 22.532 163.817 22.94C164.273 23.348 164.861 23.672 165.581 23.912C166.325 24.128 167.129 24.308 167.993 24.452C168.881 24.596 169.757 24.776 170.621 24.992C171.509 25.184 172.313 25.46 173.033 25.82C173.777 26.156 174.365 26.648 174.797 27.296C175.253 27.92 175.481 28.748 175.481 29.78C175.481 30.884 175.169 31.844 174.545 32.66C173.945 33.452 173.057 34.076 171.881 34.532C170.729 34.964 169.325 35.18 167.669 35.18ZM188.2 35.18C186.232 35.18 184.504 34.772 183.016 33.956C181.528 33.116 180.364 31.976 179.524 30.536C178.684 29.072 178.264 27.404 178.264 25.532C178.264 23.66 178.66 22.004 179.452 20.564C180.268 19.124 181.372 17.996 182.764 17.18C184.18 16.34 185.764 15.92 187.516 15.92C189.292 15.92 190.864 16.328 192.232 17.144C193.624 17.936 194.716 19.064 195.508 20.528C196.3 21.968 196.696 23.636 196.696 25.532C196.696 25.652 196.684 25.784 196.66 25.928C196.66 26.048 196.66 26.18 196.66 26.324H180.208V24.416H195.292L194.284 25.172C194.284 23.804 193.984 22.592 193.384 21.536C192.808 20.456 192.016 19.616 191.008 19.016C190 18.416 188.836 18.116 187.516 18.116C186.22 18.116 185.056 18.416 184.024 19.016C182.992 19.616 182.188 20.456 181.612 21.536C181.036 22.616 180.748 23.852 180.748 25.244V25.64C180.748 27.08 181.06 28.352 181.684 29.456C182.332 30.536 183.22 31.388 184.348 32.012C185.5 32.612 186.808 32.912 188.272 32.912C189.424 32.912 190.492 32.708 191.476 32.3C192.484 31.892 193.348 31.268 194.068 30.428L195.508 32.084C194.668 33.092 193.612 33.86 192.34 34.388C191.092 34.916 189.712 35.18 188.2 35.18ZM201.898 35V16.1H204.346V21.248L204.094 20.348C204.622 18.908 205.51 17.816 206.758 17.072C208.006 16.304 209.554 15.92 211.402 15.92V18.404C211.306 18.404 211.21 18.404 211.114 18.404C211.018 18.38 210.922 18.368 210.826 18.368C208.834 18.368 207.274 18.98 206.146 20.204C205.018 21.404 204.454 23.12 204.454 25.352V35H201.898ZM221.735 35L213.347 16.1H216.011L223.715 33.632H222.455L230.267 16.1H232.787L224.363 35H221.735ZM243.887 35.18C241.919 35.18 240.191 34.772 238.703 33.956C237.215 33.116 236.051 31.976 235.211 30.536C234.371 29.072 233.951 27.404 233.951 25.532C233.951 23.66 234.347 22.004 235.139 20.564C235.955 19.124 237.059 17.996 238.451 17.18C239.867 16.34 241.451 15.92 243.203 15.92C244.979 15.92 246.551 16.328 247.919 17.144C249.311 17.936 250.403 19.064 251.195 20.528C251.987 21.968 252.383 23.636 252.383 25.532C252.383 25.652 252.371 25.784 252.347 25.928C252.347 26.048 252.347 26.18 252.347 26.324H235.895V24.416H250.979L249.971 25.172C249.971 23.804 249.671 22.592 249.071 21.536C248.495 20.456 247.703 19.616 246.695 19.016C245.687 18.416 244.523 18.116 243.203 18.116C241.907 18.116 240.743 18.416 239.711 19.016C238.679 19.616 237.875 20.456 237.299 21.536C236.723 22.616 236.435 23.852 236.435 25.244V25.64C236.435 27.08 236.747 28.352 237.371 29.456C238.019 30.536 238.907 31.388 240.035 32.012C241.187 32.612 242.495 32.912 243.959 32.912C245.111 32.912 246.179 32.708 247.163 32.3C248.171 31.892 249.035 31.268 249.755 30.428L251.195 32.084C250.355 33.092 249.299 33.86 248.027 34.388C246.779 34.916 245.399 35.18 243.887 35.18Z" fill="currentColor"/>
<path d="M10.0193 10.85C9.38416 10.85 8.86929 11.3649 8.86929 12C8.86929 12.6351 9.38416 13.15 10.0193 13.15V12V10.85ZM10.0193 12V13.15H22.767V12V10.85H10.0193V12Z" fill="currentColor"/>
<path d="M30.5418 10.85C29.9067 10.85 29.3918 11.3649 29.3918 12C29.3918 12.6351 29.9067 13.15 30.5418 13.15V12V10.85ZM30.5418 12V13.15H39.3671V12V10.85H30.5418V12Z" fill="currentColor"/>
<path d="M18.8446 17.85C18.2095 17.85 17.6946 18.3649 17.6946 19C17.6946 19.6351 18.2095 20.15 18.8446 20.15V19V17.85ZM18.8446 19V20.15H28.6505V19V17.85H18.8446V19Z" fill="currentColor"/>
<path d="M18.2481 31.85C17.6129 31.85 17.0981 32.3649 17.0981 33C17.0981 33.6351 17.6129 34.15 18.2481 34.15L18.2481 33L18.2481 31.85ZM18.2481 33L18.2481 34.15L27.3876 34.15L27.3876 33L27.3876 31.85L18.2481 31.85L18.2481 33Z" fill="currentColor"/>
<path d="M35.5116 17.85C34.8765 17.85 34.3616 18.3649 34.3616 19C34.3616 19.6351 34.8765 20.15 35.5116 20.15V19V17.85ZM35.5116 19V20.15H45.6667V19V17.85H35.5116V19Z" fill="currentColor"/>
<path d="M32.4651 31.85C31.83 31.85 31.3151 32.3649 31.3151 33C31.3151 33.6351 31.83 34.15 32.4651 34.15V33V31.85ZM32.4651 33V34.15H44.6512V33V31.85L32.4651 31.85V33Z" fill="currentColor"/>
<path d="M9.10853 24.85C8.4734 24.85 7.95853 25.3649 7.95853 26C7.95853 26.6351 8.4734 27.15 9.10853 27.15V26V24.85ZM9.10853 26V27.15H16.9532V26V24.85H9.10853V26Z" fill="currentColor"/>
<path d="M24.3411 24.85C23.706 24.85 23.1911 25.3649 23.1911 26C23.1911 26.6351 23.706 27.15 24.3411 27.15V26V24.85ZM24.3411 26V27.15L39.5736 27.15V26V24.85L24.3411 24.85V26Z" fill="currentColor"/>
</g>
<defs>
<clipPath id="clip0_1_40">
<rect width="262" height="48" fill="white"/>
</clipPath>
</defs>
</svg>
